<svg xmlns="http://www.w3.org/2000/svg" xmlns:xlink="http://www.w3.org/1999/xlink" width="450" zoomAndPan="magnify" viewBox="0 0 337.5 74.999997" height="100" preserveAspectRatio="xMidYMid meet" version="1.0"><defs><g/><clipPath id="8c1b791f30"><path d="M 7.488281 0.992188 L 76.386719 0.992188 L 76.386719 73.636719 L 7.488281 73.636719 Z M 7.488281 0.992188 " clip-rule="nonzero"/></clipPath></defs><g fill="#ffffff" fill-opacity="1"><g transform="translate(89.535759, 54.092447)"><g><path d="M 3.140625 0 L 3.140625 -35.25 L 15.5 -35.25 C 19.769531 -35.25 23.007812 -34.425781 25.21875 -32.78125 C 27.4375 -31.144531 28.546875 -28.75 28.546875 -25.59375 C 28.546875 -23.863281 28.097656 -22.335938 27.203125 -21.015625 C 26.316406 -19.703125 25.082031 -18.738281 23.5 -18.125 C 25.3125 -17.675781 26.738281 -16.765625 27.78125 -15.390625 C 28.820312 -14.023438 29.34375 -12.347656 29.34375 -10.359375 C 29.34375 -6.972656 28.257812 -4.40625 26.09375 -2.65625 C 23.9375 -0.914062 20.851562 -0.03125 16.84375 0 Z M 10.40625 -15.34375 L 10.40625 -5.828125 L 16.625 -5.828125 C 18.34375 -5.828125 19.679688 -6.234375 20.640625 -7.046875 C 21.597656 -7.867188 22.078125 -9 22.078125 -10.4375 C 22.078125 -13.664062 20.40625 -15.300781 17.0625 -15.34375 Z M 10.40625 -20.484375 L 15.78125 -20.484375 C 19.445312 -20.546875 21.28125 -22.003906 21.28125 -24.859375 C 21.28125 -26.460938 20.816406 -27.613281 19.890625 -28.3125 C 18.960938 -29.007812 17.5 -29.359375 15.5 -29.359375 L 10.40625 -29.359375 Z M 10.40625 -20.484375 "/></g></g><g transform="translate(121.172285, 54.092447)"><g><path d="M 12.46875 -9.90625 L 17.3125 -26.1875 L 24.8125 -26.1875 L 14.28125 4.0625 L 13.703125 5.453125 C 12.140625 8.867188 9.554688 10.578125 5.953125 10.578125 C 4.941406 10.578125 3.910156 10.425781 2.859375 10.125 L 2.859375 4.8125 L 3.921875 4.84375 C 5.242188 4.84375 6.234375 4.640625 6.890625 4.234375 C 7.546875 3.828125 8.054688 3.160156 8.421875 2.234375 L 9.25 0.078125 L 0.078125 -26.1875 L 7.59375 -26.1875 Z M 12.46875 -9.90625 "/></g></g><g transform="translate(146.05549, 54.092447)"><g><path d="M 11.0625 -32.625 L 11.0625 -26.1875 L 15.546875 -26.1875 L 15.546875 -21.0625 L 11.0625 -21.0625 L 11.0625 -7.984375 C 11.0625 -7.015625 11.242188 -6.320312 11.609375 -5.90625 C 11.984375 -5.488281 12.695312 -5.28125 13.75 -5.28125 C 14.519531 -5.28125 15.207031 -5.335938 15.8125 -5.453125 L 15.8125 -0.140625 C 14.4375 0.273438 13.023438 0.484375 11.578125 0.484375 C 6.671875 0.484375 4.164062 -1.992188 4.0625 -6.953125 L 4.0625 -21.0625 L 0.234375 -21.0625 L 0.234375 -26.1875 L 4.0625 -26.1875 L 4.0625 -32.625 Z M 11.0625 -32.625 "/></g></g><g transform="translate(162.805664, 54.092447)"><g><path d="M 14.75 0.484375 C 10.90625 0.484375 7.773438 -0.691406 5.359375 -3.046875 C 2.953125 -5.398438 1.75 -8.539062 1.75 -12.46875 L 1.75 -13.140625 C 1.75 -15.773438 2.253906 -18.128906 3.265625 -20.203125 C 4.285156 -22.273438 5.726562 -23.867188 7.59375 -24.984375 C 9.457031 -26.109375 11.582031 -26.671875 13.96875 -26.671875 C 17.550781 -26.671875 20.367188 -25.539062 22.421875 -23.28125 C 24.484375 -21.03125 25.515625 -17.828125 25.515625 -13.671875 L 25.515625 -10.828125 L 8.84375 -10.828125 C 9.0625 -9.109375 9.738281 -7.734375 10.875 -6.703125 C 12.019531 -5.671875 13.460938 -5.15625 15.203125 -5.15625 C 17.898438 -5.15625 20.003906 -6.128906 21.515625 -8.078125 L 24.953125 -4.234375 C 23.910156 -2.753906 22.492188 -1.597656 20.703125 -0.765625 C 18.910156 0.0664062 16.925781 0.484375 14.75 0.484375 Z M 13.9375 -21.015625 C 12.550781 -21.015625 11.425781 -20.546875 10.5625 -19.609375 C 9.695312 -18.671875 9.144531 -17.332031 8.90625 -15.59375 L 18.640625 -15.59375 L 18.640625 -16.140625 C 18.609375 -17.691406 18.1875 -18.890625 17.375 -19.734375 C 16.570312 -20.585938 15.425781 -21.015625 13.9375 -21.015625 Z M 13.9375 -21.015625 "/></g></g><g transform="translate(189.601099, 54.092447)"><g><path d="M 3.140625 0 L 3.140625 -35.25 L 15.5 -35.25 C 19.769531 -35.25 23.007812 -34.425781 25.21875 -32.78125 C 27.4375 -31.144531 28.546875 -28.75 28.546875 -25.59375 C 28.546875 -23.863281 28.097656 -22.335938 27.203125 -21.015625 C 26.316406 -19.703125 25.082031 -18.738281 23.5 -18.125 C 25.3125 -17.675781 26.738281 -16.765625 27.78125 -15.390625 C 28.820312 -14.023438 29.34375 -12.347656 29.34375 -10.359375 C 29.34375 -6.972656 28.257812 -4.40625 26.09375 -2.65625 C 23.9375 -0.914062 20.851562 -0.03125 16.84375 0 Z M 10.40625 -15.34375 L 10.40625 -5.828125 L 16.625 -5.828125 C 18.34375 -5.828125 19.679688 -6.234375 20.640625 -7.046875 C 21.597656 -7.867188 22.078125 -9 22.078125 -10.4375 C 22.078125 -13.664062 20.40625 -15.300781 17.0625 -15.34375 Z M 10.40625 -20.484375 L 15.78125 -20.484375 C 19.445312 -20.546875 21.28125 -22.003906 21.28125 -24.859375 C 21.28125 -26.460938 20.816406 -27.613281 19.890625 -28.3125 C 18.960938 -29.007812 17.5 -29.359375 15.5 -29.359375 L 10.40625 -29.359375 Z M 10.40625 -20.484375 "/></g></g><g transform="translate(221.237625, 54.092447)"><g><path d="M 1.59375 -13.34375 C 1.59375 -15.9375 2.09375 -18.25 3.09375 -20.28125 C 4.09375 -22.320312 5.53125 -23.894531 7.40625 -25 C 9.289062 -26.113281 11.476562 -26.671875 13.96875 -26.671875 C 17.5 -26.671875 20.378906 -25.585938 22.609375 -23.421875 C 24.847656 -21.265625 26.097656 -18.332031 26.359375 -14.625 L 26.40625 -12.828125 C 26.40625 -8.804688 25.285156 -5.582031 23.046875 -3.15625 C 20.804688 -0.726562 17.796875 0.484375 14.015625 0.484375 C 10.242188 0.484375 7.226562 -0.722656 4.96875 -3.140625 C 2.71875 -5.566406 1.59375 -8.863281 1.59375 -13.03125 Z M 8.59375 -12.828125 C 8.59375 -10.347656 9.0625 -8.445312 10 -7.125 C 10.9375 -5.8125 12.273438 -5.15625 14.015625 -5.15625 C 15.710938 -5.15625 17.035156 -5.800781 17.984375 -7.09375 C 18.941406 -8.394531 19.421875 -10.476562 19.421875 -13.34375 C 19.421875 -15.78125 18.941406 -17.664062 17.984375 -19 C 17.035156 -20.34375 15.695312 -21.015625 13.96875 -21.015625 C 12.257812 -21.015625 10.9375 -20.347656 10 -19.015625 C 9.0625 -17.679688 8.59375 -15.617188 8.59375 -12.828125 Z M 8.59375 -12.828125 "/></g></g><g transform="translate(249.267539, 54.092447)"><g><path d="M 1.59375 -13.34375 C 1.59375 -15.9375 2.09375 -18.25 3.09375 -20.28125 C 4.09375 -22.320312 5.53125 -23.894531 7.40625 -25 C 9.289062 -26.113281 11.476562 -26.671875 13.96875 -26.671875 C 17.5 -26.671875 20.378906 -25.585938 22.609375 -23.421875 C 24.847656 -21.265625 26.097656 -18.332031 26.359375 -14.625 L 26.40625 -12.828125 C 26.40625 -8.804688 25.285156 -5.582031 23.046875 -3.15625 C 20.804688 -0.726562 17.796875 0.484375 14.015625 0.484375 C 10.242188 0.484375 7.226562 -0.722656 4.96875 -3.140625 C 2.71875 -5.566406 1.59375 -8.863281 1.59375 -13.03125 Z M 8.59375 -12.828125 C 8.59375 -10.347656 9.0625 -8.445312 10 -7.125 C 10.9375 -5.8125 12.273438 -5.15625 14.015625 -5.15625 C 15.710938 -5.15625 17.035156 -5.800781 17.984375 -7.09375 C 18.941406 -8.394531 19.421875 -10.476562 19.421875 -13.34375 C 19.421875 -15.78125 18.941406 -17.664062 17.984375 -19 C 17.035156 -20.34375 15.695312 -21.015625 13.96875 -21.015625 C 12.257812 -21.015625 10.9375 -20.347656 10 -19.015625 C 9.0625 -17.679688 8.59375 -15.617188 8.59375 -12.828125 Z M 8.59375 -12.828125 "/></g></g><g transform="translate(277.297453, 54.092447)"><g><path d="M 12.203125 -10.5 L 9.6875 -7.984375 L 9.6875 0 L 2.6875 0 L 2.6875 -37.1875 L 9.6875 -37.1875 L 9.6875 -16.578125 L 11.03125 -18.328125 L 17.75 -26.1875 L 26.140625 -26.1875 L 16.671875 -15.28125 L 26.96875 0 L 18.9375 0 Z M 12.203125 -10.5 "/></g></g><g transform="translate(303.778218, 54.092447)"><g><path d="M 16.875 -7.234375 C 16.875 -8.085938 16.445312 -8.757812 15.59375 -9.25 C 14.75 -9.75 13.390625 -10.191406 11.515625 -10.578125 C 5.285156 -11.890625 2.171875 -14.535156 2.171875 -18.515625 C 2.171875 -20.835938 3.132812 -22.773438 5.0625 -24.328125 C 7 -25.890625 9.523438 -26.671875 12.640625 -26.671875 C 15.960938 -26.671875 18.617188 -25.890625 20.609375 -24.328125 C 22.609375 -22.765625 23.609375 -20.734375 23.609375 -18.234375 L 16.609375 -18.234375 C 16.609375 -19.234375 16.285156 -20.054688 15.640625 -20.703125 C 14.992188 -21.359375 13.984375 -21.6875 12.609375 -21.6875 C 11.429688 -21.6875 10.519531 -21.421875 9.875 -20.890625 C 9.226562 -20.359375 8.90625 -19.679688 8.90625 -18.859375 C 8.90625 -18.085938 9.269531 -17.460938 10 -16.984375 C 10.738281 -16.503906 11.976562 -16.09375 13.71875 -15.75 C 15.46875 -15.40625 16.9375 -15.015625 18.125 -14.578125 C 21.820312 -13.222656 23.671875 -10.875 23.671875 -7.53125 C 23.671875 -5.144531 22.644531 -3.210938 20.59375 -1.734375 C 18.550781 -0.253906 15.90625 0.484375 12.65625 0.484375 C 10.46875 0.484375 8.519531 0.09375 6.8125 -0.6875 C 5.113281 -1.46875 3.78125 -2.539062 2.8125 -3.90625 C 1.84375 -5.269531 1.359375 -6.742188 1.359375 -8.328125 L 7.984375 -8.328125 C 8.046875 -7.085938 8.503906 -6.132812 9.359375 -5.46875 C 10.222656 -4.8125 11.375 -4.484375 12.8125 -4.484375 C 14.144531 -4.484375 15.15625 -4.734375 15.84375 -5.234375 C 16.53125 -5.742188 16.875 -6.410156 16.875 -7.234375 Z M 16.875 -7.234375 "/></g></g></g><g clip-path="url(#8c1b791f30)"><path fill="#ffffff" d="M 31.925781 60.570312 L 39.394531 52.753906 C 42.070312 53.535156 44.621094 54.515625 47.035156 55.632812 L 45.683594 57.128906 C 52.710938 60.636719 58.339844 64.664062 62.847656 68.78125 C 64.109375 68.019531 65.320312 67.183594 66.476562 66.28125 C 59.695312 60.03125 46.167969 49.957031 29.183594 49.601562 L 35.902344 42.570312 C 38.679688 43.230469 41.324219 44.121094 43.832031 45.175781 L 42.9375 46.160156 C 54.390625 51.878906 62.132812 58.96875 67.339844 65.589844 C 68.199219 64.875 69.027344 64.121094 69.820312 63.328125 C 62.789062 54.933594 49.710938 42.738281 31.652344 40.410156 L 61.097656 13.671875 C 61.097656 13.671875 68.707031 14.6875 76.34375 20.503906 C 70.230469 8.90625 58.054688 0.996094 44.035156 0.996094 C 23.875 0.996094 7.535156 17.339844 7.535156 37.496094 C 7.535156 57.65625 23.875 73.996094 44.035156 73.996094 C 50.179688 73.996094 55.96875 72.476562 61.050781 69.792969 C 53.769531 65.304688 42.683594 59.957031 31.925781 60.570312 " fill-opacity="1" fill-rule="nonzero"/></g></svg>